<svg width="237" height="236" viewBox="0 0 237 236" fill="none" xmlns="http://www.w3.org/2000/svg">
<rect width="237" height="236" fill="#0D0D0D"/>
<path d="M213 117.5C213 168.586 169.348 210 115.5 210C61.6522 210 18 168.586 18 117.5C18 66.4137 61.6522 25 115.5 25C169.348 25 213 66.4137 213 117.5ZM42.375 117.5C42.375 155.815 75.1142 186.875 115.5 186.875C155.886 186.875 188.625 155.815 188.625 117.5C188.625 79.1852 155.886 48.125 115.5 48.125C75.1142 48.125 42.375 79.1852 42.375 117.5Z" fill="white"/>
<g clip-path="url(#clip0_59_24)">
<path d="M97.9049 143.18C97.4351 143.18 97.0168 143.15 96.6628 143.093V144.71C97.3901 145.01 97.9918 145.16 98.4841 145.16C100.328 145.16 102.027 143.993 103.578 141.65C105.56 138.617 107.163 133.747 108.379 127.053H105.547C105.094 130.95 104.192 134.776 102.86 138.45C102.95 137.753 102.728 136.53 102.201 134.777L99.8614 127.053H96.9331L100.196 137.383C100.688 138.933 100.936 139.967 100.936 140.473C100.936 141.203 100.621 141.863 99.9869 142.453C99.4591 142.933 98.7673 143.18 97.9049 143.18Z" fill="#105E86"/>
<path d="M139.576 122.31V140.407H148.039V138.18H142.423V122.31H139.576Z" fill="#DE8A03"/>
<path d="M80.2326 125.973H80.2648L84.7698 140.407H87.0383L91.5755 125.973H91.6012C92.0962 130.769 92.3861 135.585 92.47 140.407H95.4626C95.2784 134.355 94.8188 128.316 94.0854 122.31H90.5619L86.2274 135.61H86.2017L81.9059 122.31H78.2054C77.4756 128.316 77.0353 134.355 76.8861 140.407H79.6052C79.692 135.113 79.9012 130.303 80.2326 125.973Z" fill="#105E86"/>
<path d="M136.992 131.02C136.992 125.033 134.681 122.033 130.057 122.033C127.792 122.033 126.022 122.793 124.748 124.313C123.364 125.977 122.669 128.423 122.669 131.66C122.669 134.84 123.281 137.177 124.516 138.663C125.643 140.007 127.338 140.677 129.61 140.677C130.46 140.677 131.238 140.57 131.943 140.357L136.207 142.883L137.365 140.85H137.355L134.086 139.213C134.376 138.963 134.656 138.697 134.907 138.397C136.3 136.737 136.992 134.277 136.992 131.02ZM129.903 138.437C128.471 138.437 127.425 137.89 126.756 136.8L126.762 136.783C126.038 135.607 125.678 133.707 125.678 131.103C125.678 126.543 127.042 124.263 129.765 124.263C131.19 124.263 132.242 124.81 132.908 125.9C133.629 127.083 133.99 128.963 133.99 131.54C133.99 136.133 132.625 138.437 129.903 138.437ZM119.361 131.58C119.361 131.58 116.806 130.09 115.542 129.387C114.152 128.6 113.399 127.677 113.399 126.607C113.401 126.277 113.474 125.953 113.612 125.656C113.75 125.359 113.95 125.097 114.197 124.89C114.686 124.437 115.391 124.217 116.301 124.217C117.424 124.217 118.567 124.47 119.725 124.97L120.41 123.413C119.067 122.521 117.501 122.056 115.905 122.073C114.297 122.073 112.993 122.52 111.98 123.43C110.973 124.33 110.467 125.507 110.467 126.98C110.467 128.75 111.143 129.827 112.501 130.833C112.501 130.833 114.995 132.287 116.243 132.983C117.588 133.753 118.328 134.67 118.328 135.75C118.334 136.141 118.249 136.528 118.081 136.878C117.913 137.228 117.667 137.532 117.363 137.763C116.752 138.243 115.912 138.483 114.844 138.483C113.695 138.483 112.424 138.13 111.014 137.41L110.252 138.967C111.89 140.09 113.566 140.653 115.313 140.653C117.183 140.653 118.66 140.163 119.767 139.18C120.874 138.2 121.427 136.937 121.427 135.397L121.447 135.407C121.447 133.643 120.755 132.58 119.361 131.58Z" fill="#DE8A03"/>
<path d="M129.674 97.2266C129.304 97.2266 129.053 97.2733 128.793 97.3333V97.3766H128.838C129.012 97.7166 129.308 97.9666 129.526 98.27C129.7 98.62 129.848 98.97 130.022 99.3166L130.067 99.2666C130.37 99.05 130.518 98.7033 130.518 98.1766C130.389 98.0233 130.37 97.87 130.26 97.72C130.131 97.5 129.855 97.3933 129.681 97.22L129.674 97.2266Z" fill="#105E86"/>
<path d="M153.132 122C152.498 121.151 151.744 120.406 150.896 119.79C150.207 119.313 148.701 118.643 148.418 117.843L148.376 117.797C148.846 117.753 149.406 117.58 149.857 117.45C150.587 117.253 151.256 117.297 152.013 117.103C152.354 117.017 152.698 116.907 153.042 116.797V116.6C152.656 116.207 152.367 115.673 151.968 115.307C150.852 114.315 149.664 113.415 148.415 112.613C147.739 112.173 146.883 111.893 146.172 111.52C145.915 111.39 145.484 111.323 145.336 111.103C144.949 110.627 144.724 109.99 144.451 109.42C143.833 108.217 143.228 106.883 142.691 105.613C142.304 104.757 142.07 103.903 141.597 103.117C139.376 99.3966 136.973 97.14 133.275 94.9366C132.48 94.48 131.528 94.2833 130.521 94.04C129.983 94.0133 129.446 93.9733 128.912 93.95C128.558 93.7966 128.217 93.38 127.914 93.18C126.692 92.3933 123.525 90.6933 122.624 92.9433C122.045 94.3633 123.483 95.7633 123.982 96.4833C124.352 96.9833 124.819 97.5566 125.076 98.12C125.227 98.5 125.269 98.89 125.421 99.2866C125.762 100.25 126.087 101.32 126.537 102.223C126.772 102.68 127.029 103.163 127.332 103.573C127.506 103.813 127.802 103.923 127.869 104.317C127.567 104.763 127.548 105.41 127.374 105.953C126.601 108.43 126.904 111.493 127.998 113.317C128.342 113.86 129.163 115.063 130.26 114.603C131.225 114.21 131.013 112.967 131.29 111.87C131.354 111.607 131.312 111.433 131.444 111.257V111.307C131.747 111.923 132.049 112.507 132.326 113.123C132.989 114.197 134.147 115.31 135.116 116.053C135.631 116.447 136.039 117.127 136.683 117.37V117.303H136.635C136.496 117.113 136.313 117.023 136.139 116.867C135.731 116.461 135.355 116.023 135.013 115.557C134.107 114.298 133.303 112.965 132.609 111.57C132.255 110.883 131.959 110.143 131.676 109.467C131.547 109.207 131.547 108.813 131.332 108.68C131.01 109.157 130.537 109.573 130.302 110.163C129.893 111.107 129.851 112.263 129.697 113.47C129.61 113.493 129.652 113.47 129.61 113.517C128.922 113.347 128.687 112.62 128.429 112.01C127.786 110.457 127.679 107.96 128.236 106.167C128.387 105.71 129.031 104.263 128.773 103.823C128.638 103.407 128.214 103.17 127.979 102.833C127.677 102.395 127.419 101.927 127.206 101.437C126.692 100.213 126.434 98.8566 125.874 97.6333C125.617 97.0666 125.166 96.4733 124.799 95.9533C124.391 95.3633 123.94 94.95 123.615 94.25C123.509 94.01 123.358 93.6133 123.528 93.3533C123.573 93.1766 123.664 93.1066 123.831 93.06C124.114 92.8233 124.909 93.1333 125.189 93.2633C125.984 93.59 126.653 93.8966 127.319 94.3566C127.622 94.5733 127.947 94.9866 128.333 95.0966H128.783C129.472 95.25 130.247 95.1433 130.891 95.3366C132.033 95.71 133.063 96.2533 133.986 96.8433C136.821 98.6795 139.136 101.26 140.696 104.323C140.953 104.827 141.066 105.29 141.3 105.813C141.751 106.893 142.308 107.983 142.765 109.027C143.215 110.057 143.649 111.11 144.296 111.963C144.618 112.42 145.912 112.66 146.491 112.9C146.919 113.097 147.585 113.277 147.971 113.517C148.711 113.973 149.432 114.5 150.127 115.003C150.481 115.253 151.552 115.8 151.617 116.24C149.895 116.193 148.56 116.37 147.443 116.857C147.122 116.987 146.607 116.987 146.562 117.403C146.739 117.577 146.764 117.86 146.916 118.103C147.173 118.54 147.617 119.127 148.029 119.437C148.479 119.797 148.93 120.143 149.403 120.45C150.24 120.973 151.189 121.283 152.009 121.81C152.476 122.117 152.952 122.507 153.425 122.833C153.66 122.997 153.811 123.293 154.114 123.397V123.333C153.966 123.137 153.921 122.853 153.776 122.633C153.56 122.413 153.345 122.217 153.132 122Z" fill="#105E86"/>
</g>
<path d="M115.5 210C92.9429 210 71.0836 202.58 53.6467 189.003C36.2097 175.427 24.2741 156.535 19.8734 135.546C15.4728 114.557 18.8793 92.7692 29.5127 73.8958C40.146 55.0224 57.3483 40.2307 78.1884 32.0411C99.0284 23.8516 122.217 22.7708 143.803 28.983C165.389 35.1952 184.036 48.316 196.568 66.1098C209.1 83.9035 214.741 105.269 212.531 126.567C210.32 147.864 200.393 167.775 184.443 182.907L167.207 166.556C179.17 155.206 186.615 140.273 188.273 124.3C189.931 108.327 185.7 92.3026 176.301 78.9573C166.902 65.612 152.916 55.7714 136.727 51.1123C120.538 46.4531 103.146 47.2637 87.5163 53.4059C71.8862 59.548 58.9845 70.6418 51.0095 84.7968C43.0345 98.9519 40.4796 115.293 43.7801 131.034C47.0806 146.776 56.0323 160.945 69.11 171.128C82.1877 181.31 98.5821 186.875 115.5 186.875L115.5 210Z" fill="url(#paint0_linear_59_24)"/>
<defs>
<linearGradient id="paint0_linear_59_24" x1="103.162" y1="-25.5584" x2="107.888" y2="262.053" gradientUnits="userSpaceOnUse">
<stop offset="0.565" stop-color="#993108"/>
<stop offset="0.63" stop-color="#FF520E"/>
</linearGradient>
<clipPath id="clip0_59_24">
<rect width="77.2277" height="80" fill="white" transform="translate(76.8861 78)"/>
</clipPath>
</defs>
</svg>
