<svg width="237" height="236" viewBox="0 0 237 236" fill="none" xmlns="http://www.w3.org/2000/svg">
<rect width="237" height="236" fill="#0D0D0D"/>
<path d="M213 117.5C213 168.586 169.348 210 115.5 210C61.6522 210 18 168.586 18 117.5C18 66.4137 61.6522 25 115.5 25C169.348 25 213 66.4137 213 117.5ZM42.375 117.5C42.375 155.815 75.1142 186.875 115.5 186.875C155.886 186.875 188.625 155.815 188.625 117.5C188.625 79.1852 155.886 48.125 115.5 48.125C75.1142 48.125 42.375 79.1852 42.375 117.5Z" fill="white"/>
<g clip-path="url(#clip0_3_61)">
<path d="M115.169 78.0226C95.6133 78.0226 96.8343 86.843 96.8343 86.843L96.8561 95.9812H115.518V98.7247H89.4438C89.4438 98.7247 76.9299 97.2486 76.9299 117.771C76.9299 138.294 87.8523 137.566 87.8523 137.566H94.3708V128.043C94.3708 128.043 94.0194 116.683 105.119 116.683H123.628C123.628 116.683 134.027 116.857 134.027 106.23V88.6573C134.027 88.6573 135.607 78.0226 115.169 78.0226ZM104.879 84.1678C105.32 84.1674 105.757 84.2575 106.164 84.4328C106.572 84.6081 106.942 84.8653 107.254 85.1896C107.566 85.514 107.813 85.899 107.982 86.3229C108.15 86.7467 108.237 87.2009 108.236 87.6596C108.237 88.1183 108.15 88.5725 107.982 88.9963C107.813 89.4202 107.566 89.8053 107.254 90.1296C106.942 90.4539 106.572 90.7111 106.164 90.8864C105.757 91.0617 105.32 91.1518 104.879 91.1514C104.438 91.1518 104.001 91.0617 103.594 90.8864C103.186 90.7111 102.816 90.4539 102.504 90.1296C102.192 89.8053 101.945 89.4202 101.777 88.9963C101.608 88.5725 101.521 88.1183 101.522 87.6596C101.521 87.2009 101.608 86.7467 101.777 86.3229C101.945 85.899 102.192 85.514 102.504 85.1896C102.816 84.8653 103.186 84.6081 103.594 84.4328C104.001 84.2575 104.438 84.1674 104.879 84.1678Z" fill="url(#paint0_linear_3_61)"/>
<path d="M115.725 157.726C135.281 157.726 134.06 148.905 134.06 148.905L134.038 139.768H115.376V137.024H141.45C141.45 137.024 153.964 138.5 153.964 117.977C153.964 97.4544 143.041 98.1823 143.041 98.1823H136.523V107.705C136.523 107.705 136.874 119.065 125.775 119.065H107.265C107.265 119.065 96.8663 118.891 96.8663 129.519V147.091C96.8663 147.091 95.2872 157.726 115.724 157.726H115.725ZM126.015 151.581C125.574 151.582 125.137 151.492 124.73 151.316C124.322 151.141 123.952 150.884 123.64 150.559C123.328 150.235 123.081 149.85 122.912 149.426C122.744 149.002 122.657 148.548 122.658 148.089C122.657 147.631 122.744 147.176 122.912 146.753C123.081 146.329 123.328 145.944 123.64 145.619C123.952 145.295 124.322 145.038 124.73 144.862C125.137 144.687 125.574 144.597 126.015 144.597C126.456 144.597 126.893 144.687 127.3 144.862C127.708 145.038 128.078 145.295 128.39 145.619C128.702 145.943 128.949 146.329 129.117 146.752C129.286 147.176 129.373 147.63 129.372 148.089C129.373 148.548 129.286 149.002 129.117 149.426C128.949 149.85 128.702 150.235 128.39 150.559C128.078 150.883 127.708 151.141 127.3 151.316C126.893 151.491 126.456 151.582 126.015 151.581Z" fill="url(#paint1_linear_3_61)"/>
</g>
<path d="M115.5 210C92.9429 210 71.0836 202.58 53.6467 189.003C36.2097 175.427 24.2741 156.535 19.8734 135.546C15.4728 114.557 18.8793 92.7692 29.5127 73.8958C40.146 55.0224 57.3483 40.2307 78.1884 32.0411C99.0284 23.8516 122.217 22.7708 143.803 28.983C165.389 35.1952 184.036 48.316 196.568 66.1098C209.1 83.9035 214.741 105.269 212.531 126.567C210.32 147.864 200.393 167.775 184.443 182.907L167.207 166.556C179.17 155.206 186.615 140.273 188.273 124.3C189.931 108.327 185.7 92.3026 176.301 78.9573C166.902 65.612 152.916 55.7714 136.727 51.1123C120.538 46.4531 103.146 47.2637 87.5163 53.4059C71.8862 59.548 58.9845 70.6418 51.0095 84.7968C43.0345 98.9519 40.4796 115.293 43.7801 131.034C47.0806 146.776 56.0323 160.945 69.11 171.128C82.1877 181.31 98.5821 186.875 115.5 186.875L115.5 210Z" fill="url(#paint2_linear_3_61)"/>
<defs>
<linearGradient id="paint0_linear_3_61" x1="817.224" y1="794.905" x2="4783.1" y2="4569.99" gradientUnits="userSpaceOnUse">
<stop stop-color="#387EB8"/>
<stop offset="1" stop-color="#366994"/>
</linearGradient>
<linearGradient id="paint1_linear_3_61" x1="1189.54" y1="1323.59" x2="5440.74" y2="5187.6" gradientUnits="userSpaceOnUse">
<stop stop-color="#FFE052"/>
<stop offset="1" stop-color="#FFC331"/>
</linearGradient>
<linearGradient id="paint2_linear_3_61" x1="103.162" y1="-25.5584" x2="107.888" y2="262.053" gradientUnits="userSpaceOnUse">
<stop offset="0.565" stop-color="#993108"/>
<stop offset="0.63" stop-color="#FF520E"/>
</linearGradient>
<clipPath id="clip0_3_61">
<rect width="77.2277" height="80" fill="white" transform="translate(76.8861 78)"/>
</clipPath>
</defs>
</svg>
